<?xml version="1.0" encoding="UTF-8"?>
<svg width="180px" height="36px" viewBox="0 0 180 36" version="1.1" xmlns="http://www.w3.org/2000/svg" xmlns:xlink="http://www.w3.org/1999/xlink">
    <!-- Generator: Sketch 51.1 (57501) - http://www.bohemiancoding.com/sketch -->
    <title>Website Logo Wht text - 180px</title>
    <desc>Created with Sketch.</desc>
    <defs></defs>
    <g id="Website-Logo-Wht-text---180px" stroke="none" stroke-width="1" fill="none" fill-rule="evenodd">
        <g id="Logo" transform="translate(2.000000, 5.000000)">
            <path d="M128.721593,15.9616206 C128.75123,17.10565 129.13651,18.0613163 129.882822,18.8258493 C130.629133,19.5931524 131.558656,19.9920392 132.668693,20.0197397 C133.781426,19.9920392 134.710948,19.5931524 135.457259,18.8258493 C136.203571,18.0613163 136.588851,17.10565 136.618488,15.9616206 C136.588851,14.8175911 136.203571,13.8619248 135.457259,13.0973918 C134.710948,12.3300887 133.781426,11.9312019 132.668693,11.9035015 C131.558656,11.9312019 130.629133,12.3300887 129.882822,13.0973918 C129.13651,13.8619248 128.75123,14.8175911 128.721593,15.9616206" id="Fill-3" fill="#2274A5"></path>
            <path d="M142.493067,13.93173 C142.536176,15.6463892 143.118137,17.0812736 144.236258,18.2308432 C145.354379,19.3776427 146.747315,19.9759729 148.415066,20.0202937 C150.085511,19.9759729 151.478447,19.3776427 152.596568,18.2308432 C153.714688,17.0812736 154.293956,15.6463892 154.339758,13.93173 C154.293956,12.2170708 153.714688,10.7849564 152.596568,9.63538684 C151.478447,8.48581726 150.085511,7.88748708 148.415066,7.84316632 C146.747315,7.88748708 145.354379,8.48581726 144.236258,9.63538684 C143.118137,10.7849564 142.536176,12.2170708 142.493067,13.93173" id="Fill-5" fill="#2BA6AD"></path>
            <g id="Group-9" transform="translate(160.140133, 3.004738)" fill="#F4A51C">
                <path d="M7.75178651,13.8142123 C6.4585385,15.1438349 4.51866648,13.1494009 5.81191449,11.8197783 L8.65436586,8.89460849 L5.81460876,5.97497877 C4.52136074,4.64535613 6.46123277,2.65092217 7.75448078,3.98054481 C13.3612498,9.74501297 13.3612498,8.04697406 7.75178651,13.8142123 M13.5444599,3.16892099 C12.0518362,1.63431486 10.1954864,0.839311321 7.97002212,0.778370283 C5.74455782,0.839311321 3.88820807,1.63431486 2.39558432,3.16892099 C0.905654835,4.70075708 0.132400293,6.60931958 0.0731264256,8.89737854 C0.132400293,11.1854375 0.905654835,13.094 2.39558432,14.6286061 C3.88820807,16.1604422 5.74455782,16.9554458 7.97002212,17.0163868 C10.1954864,16.9554458 12.0518362,16.1604422 13.5444599,14.6286061 C15.0343894,13.094 15.8076439,11.1854375 15.8669178,8.89737854 C15.8076439,6.60931958 15.0343894,4.70075708 13.5444599,3.16892099" id="Fill-7"></path>
            </g>
            <path d="M10.3608401,16.9219959 C10.3608401,17.1352896 10.0051969,17.9302931 9.11339461,18.7834676 C8.2242866,19.6394122 6.97684112,20.0659995 5.40338937,20.0659995 C2.1648808,20.0659995 0.0579642433,17.9912341 0.0579642433,14.8777011 L0.0579642433,10.9082235 C0.0579642433,7.7946905 2.1648808,5.71715512 5.40338937,5.71715512 C6.35177125,5.71715512 7.18429966,5.90274828 7.92791727,6.23792399 C9.50136902,6.96921644 10.3312032,8.16033672 10.3312032,8.80021762 C10.3312032,8.92209969 10.2719293,8.98304073 10.1533816,9.04675182 L8.25392354,10.0218084 C8.19464967,10.0522789 8.1353758,10.0522789 8.10573887,10.0522789 C7.98719113,10.0522789 7.95485993,9.9913379 7.86594913,9.86945583 C7.15466272,8.86115866 6.62119792,8.16033672 5.40338937,8.16033672 C3.88651722,8.16033672 2.73067681,9.41239804 2.73067681,10.9082235 L2.73067681,14.8777011 C2.73067681,16.3735266 3.88651722,17.6228179 5.40338937,17.6228179 C6.11467578,17.6228179 6.71010872,17.3485832 7.03611499,16.9524664 C7.68812753,16.1574629 7.95485993,15.6699346 8.1353758,15.6699346 C8.19464967,15.6699346 8.25392354,15.7004051 8.3131974,15.7308756 L10.1830185,16.7087023 C10.3015662,16.7696433 10.3608401,16.8305844 10.3608401,16.9219959" id="Fill-10" fill="#FFFFFF"></path>
            <path d="M20.9342203,9.01461927 C20.6674879,9.01461927 20.2202396,8.80132564 19.4793163,8.80132564 C17.8169538,8.80132564 16.8066037,9.84009333 16.8066037,11.5187419 L16.8066037,19.4549271 C16.8066037,19.6682207 16.7176929,19.7596322 16.5102344,19.7596322 L14.4329548,19.7596322 C14.222802,19.7596322 14.1338912,19.6682207 14.1338912,19.4549271 L14.1338912,6.32767351 C14.1338912,6.11437988 14.222802,6.02296833 14.4329548,6.02296833 L16.2138651,6.02296833 C16.4213236,6.02296833 16.5102344,6.11437988 16.5102344,6.32767351 L16.5102344,7.30550017 C16.5102344,7.54926432 16.6287821,7.67114639 16.7769668,7.67114639 C17.0733361,7.67114639 17.9651384,6.02296833 19.5682271,6.02296833 C20.6971249,6.02296833 21.1120419,6.05343884 21.1120419,6.41908507 L21.1120419,8.70991408 C21.1120419,8.89273719 21.0527681,9.01461927 20.9342203,9.01461927" id="Fill-12" fill="#FFFFFF"></path>
            <path d="M32.128629,10.6938219 C32.128629,9.3808195 30.8515466,8.1592287 29.4559165,8.1592287 C28.0306494,8.1592287 26.7832039,9.41129002 26.7832039,10.7547629 C26.7832039,11.0899386 26.8128408,11.2118207 27.0822675,11.2118207 L31.8322597,11.2118207 C32.0989921,11.2118207 32.128629,11.0594681 32.128629,10.6938219 M34.5049723,13.3502971 L27.0822675,13.3502971 C26.8721147,13.3502971 26.7832039,13.4417087 26.7832039,13.6550023 L26.7832039,14.8765931 C26.7832039,16.3724186 27.9417386,17.6244799 29.4559165,17.6244799 C30.1698971,17.6244799 30.7626358,17.3502452 31.0886421,16.9513584 C31.7433489,16.1591249 32.0100813,15.6715966 32.1879029,15.6715966 C32.2471768,15.6715966 32.3064506,15.6992971 32.3657245,15.7297676 L34.2382398,16.7075943 C34.3567876,16.7685353 34.4160614,16.8294763 34.4160614,16.9208879 C34.4160614,17.1369516 34.057724,17.9291851 33.168616,18.7851296 C32.2768137,19.6383042 31.0293682,20.0648914 29.4559165,20.0648914 C26.2201022,20.0648914 24.1131856,17.9901261 24.1131856,14.8765931 L24.1131856,10.9071155 C24.1131856,8.12875818 26.4868346,5.71881715 29.4559165,5.71881715 C32.4249984,5.71881715 34.8013416,8.12875818 34.8013416,10.9071155 L34.8013416,13.0455919 C34.8013416,13.2588855 34.7124308,13.3502971 34.5049723,13.3502971" id="Fill-14" fill="#FFFFFF"></path>
            <path d="M46.1458209,14.4187043 C46.1458209,14.2358812 46.0272732,14.1139991 45.8494516,14.1139991 L42.4331214,14.1139991 C41.6921981,14.1139991 41.1264021,14.692939 41.1264021,15.457472 L41.1264021,15.9450003 C41.1264021,16.7372338 41.6921981,17.3189437 42.4331214,17.3189437 L43.5916561,17.3189437 C44.7205539,17.3189437 45.6123561,16.5544107 46.116184,15.1195262 L46.1458209,14.5405864 L46.1458209,14.4187043 Z M48.5194699,19.7621253 L46.7385596,19.7621253 C46.5311011,19.7621253 46.4421903,19.6707137 46.4421903,19.45465 L46.4421903,19.0585333 C46.4421903,18.8452397 46.3532795,18.7233576 46.2347317,18.7233576 C45.7874835,18.7233576 44.9576493,19.7621253 43.5916561,19.7621253 L42.4331214,19.7621253 C40.0891094,19.7621253 38.4833265,18.1416477 38.4833265,15.9450003 L38.4833265,15.7621772 C38.4833265,13.5627597 40.0891094,11.9755227 42.4331214,11.9755227 L45.8494516,11.9755227 C46.0569101,11.9755227 46.1458209,11.8841111 46.1458209,11.6708175 L46.116184,10.8148729 C46.0569101,9.25810642 44.9872863,8.13069722 43.4434714,8.13069722 C42.7887646,8.13069722 42.196026,8.40493189 41.8403828,8.80104863 C41.185676,9.53511113 40.9189436,10.0226394 40.7411219,10.0226394 C40.6818481,10.0226394 40.6225742,9.99216892 40.5633003,9.9616984 L38.7527531,8.98387175 C38.6315111,8.92293071 38.5722373,8.86198967 38.5722373,8.74010759 C38.5722373,8.49634344 38.9602117,7.73181042 39.9112878,6.8786359 C40.7411219,6.11410288 41.9292936,5.71798613 43.4434714,5.71798613 C46.6792858,5.71798613 48.7592596,7.76228094 48.7888966,10.8148729 L48.8185335,14.8452916 L48.8185335,19.45465 C48.8185335,19.6707137 48.7296227,19.7621253 48.5194699,19.7621253 L48.5194699,19.7621253 Z" id="Fill-16" fill="#FFFFFF"></path>
            <path d="M56.3894229,19.7607403 L54.3121433,19.7607403 C54.1019905,19.7607403 54.0130797,19.6693287 54.0130797,19.4560351 L54.0130797,0.833007948 C54.0130797,0.619714316 54.1019905,0.528302759 54.3121433,0.528302759 L56.3894229,0.528302759 C56.5968815,0.528302759 56.6857923,0.619714316 56.6857923,0.833007948 L56.6857923,19.4560351 C56.6857923,19.6693287 56.5968815,19.7607403 56.3894229,19.7607403" id="Fill-18" fill="#FFFFFF"></path>
            <path d="M66.4517008,26.9351624 C65.0560706,26.9351624 63.8975359,26.5695162 63.2158865,26.0487473 C62.0573518,25.1651023 61.4915558,24.3396282 61.4915558,23.8216294 C61.4915558,23.7302179 61.5508296,23.6692768 61.6720716,23.6083358 L63.5418927,22.6305091 C63.6011666,22.6000386 63.6604405,22.5695681 63.6900774,22.5695681 C63.8086251,22.5695681 63.867899,22.6609796 63.9568098,22.7828617 C64.6707905,23.7302179 65.0857075,24.4919808 66.4517008,24.4919808 C67.9658786,24.4919808 69.1244133,23.2399195 69.1244133,21.744094 L69.1244133,19.2122709 C69.1244133,18.9962072 69.0058656,18.8770952 68.8873179,18.8770952 C68.4993435,18.8770952 67.8473309,19.7607403 66.4517008,19.7607403 C63.2158865,19.7607403 61.1062756,17.6859749 61.1062756,14.5696719 L61.1062756,6.32878153 C61.1062756,6.1154879 61.1951864,6.02407634 61.4053392,6.02407634 L63.4826189,6.02407634 C63.6900774,6.02407634 63.7789882,6.1154879 63.7789882,6.32878153 L63.7789882,14.5696719 C63.7789882,16.0682674 64.9375229,17.3175587 66.4517008,17.3175587 C67.9658786,17.3175587 69.1244133,16.0682674 69.1244133,14.5696719 L69.1244133,6.32878153 C69.1244133,6.1154879 69.2133241,6.02407634 69.4207827,6.02407634 L71.5007566,6.02407634 C71.7082151,6.02407634 71.7971259,6.1154879 71.7971259,6.32878153 L71.7971259,21.4393888 C71.7971259,24.8299266 69.7764259,26.9351624 66.4517008,26.9351624" id="Fill-20" fill="#FFFFFF"></path>
            <path d="M82.3678119,20.0355289 C79.9321948,20.0355289 77.5854885,17.9302931 77.5854885,14.8777011 L77.5854885,8.7697471 C77.5854885,8.55645347 77.4992719,8.46504191 77.2891191,8.46504191 L75.6563935,8.46504191 C75.448935,8.46504191 75.3600242,8.37363035 75.3600242,8.16033672 L75.419298,7.09109851 L78.8329339,3.36815512 L79.0430867,3.27674356 L79.9618317,3.27674356 C80.1692902,3.27674356 80.258201,3.36815512 80.258201,3.58144875 L80.258201,5.71715512 C80.258201,5.93044875 80.3471118,6.02463035 80.5545704,6.02463035 L82.6345443,6.02463035 C82.8420028,6.02463035 82.9309136,6.11604191 82.9309136,6.32933554 L82.9309136,8.16033672 C82.9309136,8.37363035 82.8420028,8.46504191 82.6345443,8.46504191 L80.5545704,8.46504191 C80.3471118,8.46504191 80.258201,8.55645347 80.258201,8.7697471 L80.258201,14.8777011 C80.258201,15.517582 80.4683538,16.0660513 80.9129078,16.6477613 C81.1796402,16.982937 81.8047101,17.1962306 82.6938181,17.5923473 C82.8420028,17.6532884 82.9309136,17.7142294 82.9309136,17.8998226 L82.9309136,19.7308238 C82.9309136,20.0050584 82.7827289,20.0355289 82.3678119,20.0355289" id="Fill-22" fill="#FFFFFF"></path>
            <path d="M89.5792861,19.7607403 L87.5020065,19.7607403 C87.2918537,19.7607403 87.2029429,19.6693287 87.2029429,19.4560351 L87.2029429,6.32878153 C87.2029429,6.1154879 87.2918537,6.02407634 87.5020065,6.02407634 L89.5792861,6.02407634 C89.7867446,6.02407634 89.8756554,6.1154879 89.8756554,6.32878153 L89.8756554,19.4560351 C89.8756554,19.6693287 89.7867446,19.7607403 89.5792861,19.7607403 M88.5392991,3.58089474 C87.6205542,3.58089474 86.9065735,2.88007281 86.9065735,1.90224616 C86.9065735,0.954890024 87.6205542,0.223597571 88.5392991,0.223597571 C89.4607384,0.223597571 90.1720248,0.954890024 90.1720248,1.90224616 C90.1720248,2.84683224 89.4607384,3.58089474 88.5392991,3.58089474" id="Fill-24" fill="#FFFFFF"></path>
            <path d="M104.604134,16.9219959 C104.604134,17.1352896 104.248491,17.9302931 103.356688,18.7834676 C102.46758,19.6394122 101.220135,20.0659995 99.6439888,20.0659995 C96.4081745,20.0659995 94.3012579,17.9912341 94.3012579,14.8777011 L94.3012579,10.9082235 C94.3012579,7.7946905 96.4081745,5.71715512 99.6439888,5.71715512 C100.595065,5.71715512 101.427593,5.90274828 102.168517,6.23792399 C103.741968,6.96921644 104.574497,8.16033672 104.574497,8.80021762 C104.574497,8.92209969 104.515223,8.98304073 104.396675,9.04675182 L102.494523,10.0218084 C102.435249,10.0522789 102.375975,10.0522789 102.346338,10.0522789 C102.227791,10.0522789 102.198154,9.9913379 102.109243,9.86945583 C101.397956,8.86115866 100.861797,8.16033672 99.6439888,8.16033672 C98.1298109,8.16033672 96.9739705,9.41239804 96.9739705,10.9082235 L96.9739705,14.8777011 C96.9739705,16.3735266 98.1298109,17.6228179 99.6439888,17.6228179 C100.357969,17.6228179 100.950708,17.3485832 101.276714,16.9524664 C101.931421,16.1574629 102.198154,15.6699346 102.375975,15.6699346 C102.435249,15.6699346 102.494523,15.7004051 102.553797,15.7308756 L104.426312,16.7087023 C104.54486,16.7696433 104.604134,16.8305844 104.604134,16.9219959" id="Fill-26" fill="#FFFFFF"></path>
            <path d="M113.478509,11.639239 C116.65505,12.2818899 118.201559,13.0741234 118.201559,15.456364 C118.201559,18.2042508 116.299407,20.0657225 113.300688,20.0657225 L112.408886,20.0657225 C109.469441,20.0657225 107.569983,18.2042508 107.569983,16.98266 C107.569983,16.9217189 107.629256,16.8303074 107.747804,16.7693663 L109.469441,15.8829512 C109.528714,15.8524807 109.590683,15.8220102 109.620319,15.8220102 C109.706536,15.8220102 109.76581,15.9134217 109.857415,16.0048333 C110.568701,16.9521894 111.10486,17.7167225 112.408886,17.7167225 L113.300688,17.7167225 C114.666681,17.7167225 115.558483,16.9217189 115.558483,15.9438923 C115.558483,14.6308899 114.251764,14.4785373 111.78651,13.9605385 C108.965613,13.3815986 107.629256,12.4951835 107.629256,10.2071246 C107.629256,7.55064934 109.561046,5.71687811 112.408886,5.71687811 L113.300688,5.71687811 C116.240133,5.71687811 118.139591,7.58111986 118.139591,8.79994061 C118.139591,8.89412222 118.080317,8.95506325 117.961769,9.01323425 L116.240133,9.89964934 C116.180859,9.93011986 116.091948,9.96059038 116.062311,9.96059038 C115.9734,9.96059038 115.943763,9.86917882 115.854853,9.77776726 C115.111235,8.79994061 114.57777,8.06864816 113.300688,8.06864816 L112.408886,8.06864816 C111.013255,8.06864816 110.242695,8.64758802 110.242695,9.62541467 C110.242695,10.877476 111.312319,11.1821812 113.478509,11.639239 Z" id="Fill-28" fill="#FFFFFF"></path>
        </g>
    </g>
</svg>